P1
46 8
01001001011011010110000101100111011001010010110101101011011001010111100100001010011001110110010101101110011001010111001001100001011101000110010100100000011000100111100100100000010001000100001000101101010000100111001001110101011011010110000101111010011110100110100100100000001011010010000000110010001100000011000100110110001011010011000000110110001011010011001000110110